<?xml version="1.0" encoding="UTF-8" standalone="no"?>
<!-- Created with Inkscape (http://www.inkscape.org/) -->

<svg
   xmlns:dc="http://purl.org/dc/elements/1.1/"
   xmlns:cc="http://creativecommons.org/ns#"
   xmlns:rdf="http://www.w3.org/1999/02/22-rdf-syntax-ns#"
   xmlns:svg="http://www.w3.org/2000/svg"
   xmlns="http://www.w3.org/2000/svg"
   xmlns:sodipodi="http://sodipodi.sourceforge.net/DTD/sodipodi-0.dtd"
   xmlns:inkscape="http://www.inkscape.org/namespaces/inkscape"
   version="1.0"
   width="300"
   height="300"
   id="svg16413"
   inkscape:version="0.47 r22583"
   sodipodi:docname="Caduceus.svg"
   inkscape:export-filename="/home/guitarfreak/Coding/oaunofficial/content/source/icons/regen.png"
   inkscape:export-xdpi="38.400002"
   inkscape:export-ydpi="38.400002">
  <metadata
     id="metadata2884">
    <rdf:RDF>
      <cc:Work
         rdf:about="">
        <dc:format>image/svg+xml</dc:format>
        <dc:type
           rdf:resource="http://purl.org/dc/dcmitype/StillImage" />
        <dc:title></dc:title>
      </cc:Work>
    </rdf:RDF>
  </metadata>
  <sodipodi:namedview
     pagecolor="#ffffff"
     bordercolor="#666666"
     borderopacity="1"
     objecttolerance="10"
     gridtolerance="10"
     guidetolerance="10"
     inkscape:pageopacity="0"
     inkscape:pageshadow="2"
     inkscape:window-width="1920"
     inkscape:window-height="1055"
     id="namedview2882"
     showgrid="false"
     inkscape:zoom="1.8750247"
     inkscape:cx="148.28978"
     inkscape:cy="133.15191"
     inkscape:window-x="-4"
     inkscape:window-y="-4"
     inkscape:window-maximized="1"
     inkscape:current-layer="svg16413" />
  <defs
     id="defs16415">
    <inkscape:perspective
       sodipodi:type="inkscape:persp3d"
       inkscape:vp_x="0 : 178 : 1"
       inkscape:vp_y="0 : 1000 : 0"
       inkscape:vp_z="299 : 178 : 1"
       inkscape:persp3d-origin="149.5 : 118.66667 : 1"
       id="perspective2886" />
  </defs>
  <g
     id="layer1"
     transform="matrix(0.82742346,0,0,0.83371117,26.300193,1.5994192)"
     style="fill:#ff0000;fill-opacity:1">
    <path
       d="m 140.40096,350.28254 c -0.9485,-1.14298 -1.37244,-4.55575 -1.37244,-11.04832 l 0,-9.39447 -4,-1.81616 c -8.88817,-4.03557 -12.5,-10.05229 -12.5,-20.82296 0,-5.65834 0.43231,-7.43618 2.57494,-10.58935 2.75436,-4.0534 2.75664,-4.04248 -1.9098,-9.16192 -6.46172,-7.089 -8.00807,-24.3257 -2.69016,-29.98635 1.11376,-1.18554 2.02502,-2.61037 2.02502,-3.16629 0,-0.55592 -2.07196,-3.67691 -4.60435,-6.93555 -7.86338,-10.11845 -8.82116,-12.65051 -8.86075,-23.42479 -0.0319,-8.67744 0.2145,-9.93293 2.84544,-14.5 1.58419,-2.75 4.19345,-6.39388 5.79836,-8.0975 l 2.91802,-3.09751 -3.66405,-4.38558 c -2.01523,-2.41207 -4.82187,-6.8682 -6.23698,-9.9025 -2.27817,-4.8849 -2.57995,-6.83434 -2.6343,-17.01691 -0.0532,-9.97336 0.24693,-12.18134 2.26118,-16.63243 1.27741,-2.82284 3.63991,-6.39453 5.25,-7.93709 2.83721,-2.71823 3.85483,-5.43048 2.03746,-5.43048 -0.48948,0 -3.36893,-2.43967 -6.39878,-5.4215 -8.40638,-8.27314 -12.7515,-22.57849 -9.32337,-30.69512 l 1.52751,-3.616652 -3.7077,-3.00978 c -3.63808,-2.95328 -5.64175,-6.09268 -8.57798,-13.44024 l -1.47191,-3.6833 -5.06956,1.62118 c -4.85655,1.55307 -5.29053,1.53265 -10.3289,-0.48594 -3.29526,-1.32022 -7.36526,-2.08393 -10.89851,-2.04503 -3.96454,0.04366 -7.07241,-0.63172 -10.46546,-2.27427 -2.65445,-1.285 -6.82528,-2.45412 -9.2685,-2.59804 -2.97558,-0.17529 -6.28859,-1.39591 -10.03455,-3.69705 -3.99167,-2.45208 -6.80863,-3.44875 -9.84182,-3.48213 -4.80239,-0.05284 -12.61016,-3.85055 -16.70624,-8.12594 l -2.6013,-2.71517 5.56056,-1.24439 c 6.77487,-1.51616 24.79937,-10.53613 36.99648,-18.5141 4.95,-3.23773 15.3,-10.03336 23,-15.1014 17.17918,-11.30711 18.47241,-11.97158 26.29544,-13.51067 18.11166,-3.56325 32.39021,4.75775 34.71007,20.22773 0.89407,5.96211 -0.77932,11.18568 -5.1464,16.06469 -1.84751,2.06408 -3.35911,4.16158 -3.35911,4.66111 0,0.49952 1.43761,2.11789 3.19468,3.59637 2.58231,2.17287 3.86289,2.5797 6.68074,2.12243 5.28164,-0.85709 6.10163,-2.26953 6.18974,-10.66186 0.0594,-5.65546 -0.42502,-8.49196 -1.99336,-11.67262 -4.29426,-8.70894 -1.8334,-17.98388 5.83548,-21.99381 10.38347,-5.42935 21.58289,-0.01449 22.82724,11.03684 0.34822,3.09265 -0.20848,5.63781 -2.17177,9.92905 -2.31985,5.07058 -2.60502,6.82908 -2.35139,14.5 l 0.28864,8.72961 4.69783,0.30266 c 4.31946,0.27828 10.80217,-1.81254 10.80217,-3.48395 0,-0.34646 -1.05673,-2.0224 -2.34829,-3.72432 -5.76164,-7.59223 -6.25604,-19.91347 -1.10669,-27.58067 6.39034,-9.51498 15.01719,-12.62078 27.73552,-9.98521 11.67611,2.41959 16.56765,5.34196 44.89146,26.81974 6.7804,5.14154 18.178,12.70501 25.328,16.80772 12.37233,7.09931 13.25348,7.44064 18.25,7.06948 4.82795,-0.35864 5.25,-0.21697 5.25,1.76228 0,2.93446 -6.36106,10.14566 -11.06761,12.54676 -2.11899,1.08103 -5.61626,1.96551 -7.77171,1.96551 -2.15545,0 -6.47816,1.17163 -9.60604,2.60362 -4.62967,2.11953 -6.52382,2.47813 -10.18758,1.92871 -3.1938,-0.47893 -5.14079,-0.25538 -6.70563,0.76994 -2.50524,1.6415 -8.61419,2.84612 -16.66143,3.28547 -16.56429,0.90435 -22.12243,1.36989 -23.02656,1.92867 -0.55206,0.3412 -1.63416,2.12916 -2.40468,3.97327 -1.55459,3.72066 -5.62148,8.26369 -9.81876,10.96831 -2.52573,1.627532 -2.75,2.290432 -2.75,8.128512 0,8.93562 -3.26137,15.80706 -11.60387,24.44838 l -6.64827,6.88641 4.12413,4.92582 c 6.13864,7.33193 8.08018,12.35222 8.10605,20.96007 0.0404,13.43842 -3.26594,21.00943 -12.69461,29.06881 l -4.74324,4.05439 3.07124,3.28481 c 7.26459,7.76977 7.89382,9.40004 7.82927,20.28481 -0.0729,12.29948 -1.69911,15.97809 -10.41426,23.55829 -5.58308,4.85602 -7.51468,7.94171 -4.97141,7.94171 0.58026,0 2.20396,2.5875 3.60821,5.75 4.42787,9.97199 2.41021,20.34073 -5.7655,29.62883 -2.14376,2.43544 -3.89774,4.67653 -3.89774,4.98021 0,0.30368 1.125,2.20992 2.5,4.2361 2.02352,2.98182 2.5,4.90567 2.5,10.09407 0,11.27601 -7.02826,20.31079 -15.8,20.31079 l -2.89932,0 -0.68083,11.20983 c -0.62498,10.29017 -1.33659,12.71603 -3.74741,12.77486 -0.34515,0.008 -1.24515,-0.72892 -2,-1.63853 z m 3.12756,-25.90518 c 0,-14.60322 -0.35663,-22.44098 -1.02111,-22.44098 -0.66911,0 -0.97456,7.92461 -0.8861,22.98862 0.0767,13.06345 0.51757,22.75219 1.02111,22.44099 0.48735,-0.30121 0.8861,-10.64609 0.8861,-22.98863 z m -4.4537,-11.86795 c -0.12057,-8.83823 -1.43852,-10.61591 -4.08143,-5.5051 -1.89318,3.66101 -1.32689,10.38068 1.29939,15.4189 l 1.57069,3.01317 0.65974,-2.5 c 0.36286,-1.375 0.61108,-6.06714 0.55161,-10.42697 z m 11.41852,9.49271 c 1.42187,-2.65679 1.30612,-12.3948 -0.16482,-13.86574 -2.23637,-2.23637 -2.65246,-1.21557 -2.97653,7.30233 -0.2352,6.18229 0.008,8.5017 0.89135,8.5 0.66815,-0.001 1.68065,-0.87275 2.25,-1.93659 z m 8.14206,-4.73867 c 6.42388,-10.39406 3.97249,-18.37261 -8.7034,-28.32707 -1.05054,-0.825 -3.74352,-2.93887 -5.9844,-4.6975 -2.24087,-1.75862 -5.33164,-5.01183 -6.86838,-7.22934 -2.46578,-3.55812 -2.74402,-4.72382 -2.36807,-9.92121 l 0.426,-5.88937 -4.15917,-2.63129 c -2.28755,-1.44721 -4.88793,-2.63129 -5.77864,-2.63129 -4.26125,0 -6.42043,12.87683 -3.37954,20.15471 2.91674,6.98074 12.09964,14.9609 21.70872,18.86541 5.02213,2.04067 10.77659,8.27207 11.57651,12.53601 0.66206,3.52907 0.21127,8.58854 -1.19781,13.44387 -0.6505,2.24145 -0.55372,2.3591 0.9358,1.13758 0.91374,-0.74933 2.62031,-2.91406 3.79238,-4.81051 z m -28.78245,-1.23558 c -0.79533,-6.71534 0.19729,-11.09613 3.2635,-14.40289 3.0107,-3.24691 2.6045,-5.35122 -1.21817,-6.31064 -2.22603,-0.5587 -3.14769,-0.15826 -5.10998,2.2202 -2.12098,2.57079 -2.34542,3.66105 -1.96727,9.55676 0.29215,4.55486 1.12799,7.7894 2.64873,10.25 1.22203,1.97729 2.38898,3.59508 2.5932,3.59508 0.20423,0 0.10973,-2.20883 -0.21001,-4.90851 z m 29.82899,-31.84149 c 5.19424,-4.68323 7.80266,-10.28272 7.80266,-16.75 0,-9.5859 -5.90958,-17.74139 -18.47763,-25.5 -7.25407,-4.47814 -14.23639,-10.63122 -16.05523,-14.14847 -2.24192,-4.33541 -1.80387,-11.01152 0.99295,-15.13286 2.78927,-4.11021 2.86414,-3.99325 -6.17854,-9.6507 -6.08822,-3.80902 -6.5146,-3.64974 -10.67062,3.98625 -3.98509,7.32192 -4.47337,14.90698 -1.54574,24.01194 1.91795,5.96483 3.29494,8.15838 8.4165,13.40756 3.71437,3.80692 8.60319,7.52776 12.42672,9.45788 12.32471,6.22149 18.28285,14.1422 14.72389,19.57386 -0.89793,1.37041 -1.58838,4.52597 -1.58838,7.25936 0,8.21744 3.55238,9.4368 10.15342,3.48518 z m -14.04273,-6.5 c 0.21474,-8.24496 -0.74971,-11.75 -3.23313,-11.75 -1.35166,0 -1.05932,13.41824 0.32244,14.8 2.08013,2.08013 2.79663,1.32934 2.91069,-3.05 z m -6.38261,-9.5 c -0.39863,-1.66667 -0.45484,-1.66667 -1.18031,0 -0.41896,0.9625 -0.41896,2.5375 0,3.5 0.72547,1.66667 0.78168,1.66667 1.18031,0 0.23021,-0.9625 0.23021,-2.5375 0,-3.5 z m 26.10271,-24.0009 c 7.02346,-4.27122 11.32548,-12.1863 11.96263,-22.00947 0.42811,-6.60022 0.19005,-7.83091 -2.61817,-13.53522 -1.69901,-3.45117 -4.12099,-7.20642 -5.38218,-8.345 -3.29903,-2.97831 -17.67584,-12.75603 -21.79307,-14.82156 -1.925,-0.96573 -6.31723,-3.61931 -9.7605,-5.89686 -5.37983,-3.55847 -6.54037,-4.88479 -8.25,-9.4285 -3.25033,-8.63845 -2.57319,-14.59918 2.26198,-19.91161 2.7629,-3.03563 1.81329,-4.61174 -4.78196,-7.93683 l -5.68078,-2.86405 -3.50855,4 c -5.44932,6.21261 -7.28019,11.41586 -7.28019,20.68994 0,6.87937 0.43463,8.9348 3.0465,14.4075 3.5621,7.4637 10.32266,14.48282 18.60446,19.316 12.54068,7.31863 22.67282,14.57026 24.46557,17.51015 1.0318,1.69203 1.87768,4.78184 1.87973,6.86625 0.004,3.98743 -2.76332,10.44202 -5.42317,12.6495 -2.64952,2.19891 -1.77301,4.7883 2.67691,7.90817 5.07561,3.55854 5.84813,3.67155 9.58079,1.40159 z m -17.82066,-15.2491 c 0.30663,-13.51908 0.24926,-13.81451 -3.01013,-15.5 l -3,-1.55136 0,10.48672 c 0,9.50876 0.20465,10.67739 2.19448,12.5312 1.20697,1.12446 2.52608,1.70449 2.93136,1.28896 0.40528,-0.41554 0.80321,-3.68052 0.88429,-7.25552 z m 6.36957,-3.1797 c 0.19798,-5.46421 -1.84816,-4.82907 -2.1897,0.6797 -0.23934,3.86042 -0.0388,4.73113 0.87971,3.8203 0.65433,-0.64884 1.24383,-2.67384 1.30999,-4.5 z m -15.16177,-6.00237 c -1.45026,-1.45026 -2.58465,2.6507 -1.66086,6.00424 0.72415,2.62884 0.75542,2.60773 1.70888,-1.15358 0.64702,-2.55241 0.63099,-4.17165 -0.048,-4.85066 z m 31.74928,-32.29386 c 8.34828,-6.1282 12.31544,-14.25924 12.45326,-25.52407 0.0559,-4.56697 -0.50172,-7.67197 -1.87498,-10.44086 -1.87994,-3.79051 -10.39514,-13.55914 -11.81933,-13.55914 -0.38002,0 -3.57879,-1.76757 -7.1084,-3.92792 -3.59852,-2.20254 -11.62279,-5.58076 -18.26762,-7.69067 -13.38504,-4.25011 -22.25358,-9.11533 -26.6988,-14.64676 -2.41764,-3.00841 -3.11297,-4.96845 -3.45883,-9.74999 -0.45625,-6.307642 0.31241,-7.294192 3.19848,-4.105122 4.01811,4.439982 14.06424,3.171082 18.38523,-2.32218 2.27357,-2.89037 2.06565,-4.99012 -0.60354,-6.09529 -7.29953,-3.02236 -16.00151,-2.05196 -22.65607,2.5265 -8.42644,5.79754 -10.82896,15.553612 -6.1059,24.794672 4.45298,8.71264 10.79359,13.44003 32.39714,24.15445 18.18553,9.01922 21.45221,11.12899 24.25599,15.6656 3.85269,6.23379 1.43107,15.89506 -5.58426,22.27886 -3.90735,3.55561 -4.27444,5.11301 -1.72958,7.3377 2.34431,2.04937 7.42366,4.69051 9.11602,4.74011 0.75132,0.022 3.49685,-1.52413 6.10119,-3.43589 z M 121.25347,92.327998 c -1.23868,-1.23868 0.36859,-2.39162 3.33407,-2.39162 1.61754,0 2.94098,0.45 2.94098,1 0,0.55 -0.6382,1 -1.41821,1 -0.78002,0 -2.04102,0.23899 -2.80224,0.5311 -0.76121,0.2921 -1.68578,0.22934 -2.0546,-0.13948 z m 28.74677,76.438152 c 0.72133,-13.04252 0.70561,-13.1878 -1.62166,-14.98347 -3.04816,-2.35189 -5.86415,-3.26429 -6.77651,-2.19564 -0.39882,0.46714 -0.46602,6.8285 -0.14934,14.13636 0.5579,12.87408 0.65349,13.32944 3.07579,14.65195 4.5807,2.50094 4.70607,2.23494 5.47172,-11.6092 z m 7.99068,4.86796 c 2.61673,-3.99364 2.80685,-7.88993 0.56101,-11.49723 -1.12982,-1.81472 -2.49728,-3.02566 -3.03881,-2.69098 -1.28692,0.79536 -1.2942,16.49048 -0.008,16.49048 0.53732,0 1.65577,-1.03602 2.48545,-2.30227 z m -19.4624,-8.19773 c 0,-7.67636 -0.28119,-9.5 -1.46482,-9.5 -1.70764,0 -3.02145,2.20885 -3.98549,6.70066 -0.48144,2.24321 -0.0849,4.56157 1.32546,7.75 3.09742,7.00222 4.12485,5.76909 4.12485,-4.95066 z m 34.31574,-32.63219 c 9.50374,-4.92618 17.63344,-16.56542 18.41724,-26.36781 0.44603,-5.57809 0.25654,-6.28126 -2.69486,-10.000002 -4.89803,-6.17147 -10.14151,-8.85008 -17.41909,-8.89846 -6.63179,-0.04408 -11.8988,1.89715 -12.41462,4.57558 -0.17603,0.91404 0.98907,3.12706 2.58912,4.91783 2.53577,2.83801 3.67242,3.311142 8.85564,3.686062 5.28545,0.38232 6.29067,0.1405 9.043,-2.175442 1.7031,-1.43307 3.3744,-2.60557 3.714,-2.60557 0.84624,0 -0.44516,8.033122 -1.68797,10.500002 -3.59648,7.13875 -12.77423,14.7563 -21.0231,17.4492 -5.10579,1.66683 -4.49789,3.55124 2.3049,7.1449 6.11372,3.22965 7.15988,3.40952 10.31574,1.77371 z m -2.56574,-40.557142 c -2.82054,-0.73708 -2.00947,-2.31067 1.19098,-2.31067 3.32679,0 4.85465,1.48071 2.47149,2.39521 -0.86683,0.33264 -1.65174,0.55259 -1.74426,0.48879 -0.0925,-0.0638 -0.95571,-0.3218 -1.91821,-0.57333 z m -18.6076,31.439332 c 0.41526,-3.64506 0.78738,-10.61079 1.82965,-34.250002 0.6305,-14.3 1.32053,-26.53627 1.53341,-27.19172 0.21287,-0.65545 0.46681,-6.50545 0.5643,-13 l 0.17727,-11.80828 -6.85082,-0.68937 c -3.76794,-0.37915 -6.98988,-0.55029 -7.15986,-0.38032 -0.16997,0.16998 -0.51878,19.24046 -0.77512,42.37886 -0.36576,33.014722 -0.19651,42.244252 0.78635,42.880312 1.63882,1.06058 6.91075,3.03929 8.50242,3.19121 0.6875,0.0656 1.31408,-0.44319 1.3924,-1.13069 z m 11.16246,-3.67652 c 4.56315,-2.09553 11.69514,-8.16838 11.69514,-9.95835 0,-0.61332 -0.675,-1.11513 -1.5,-1.11513 -0.825,0 -1.3875,-0.51496 -1.25,-1.14435 0.1375,-0.62939 -1.30861,-1.56716 -3.21358,-2.08394 -1.90498,-0.51677 -5.05498,-2.33966 -7,-4.05088 l -3.53642,-3.111312 -0.30073,6.311182 c -0.1654,3.47115 -0.0773,6.53462 0.19581,6.80771 0.27309,0.27309 2.54591,-0.20177 5.05072,-1.05524 6.19851,-2.11205 5.75909,-0.57536 -0.68747,2.40418 -5.0995,2.35694 -6.56029,4.39038 -5.37429,7.48106 0.70542,1.8383 0.89578,1.82271 5.92082,-0.48493 z m -24.54832,-2.25626 c -0.6997,-1.81062 -12.75524,-8.81722 -15.17088,-8.81722 -1.73515,0 -1.62406,0.35048 0.96895,3.057 6.11267,6.38026 15.98964,10.38629 14.20193,5.76022 z m -0.55564,-6.56722 c 0.74758,-3.01334 0.9787,-12.250002 0.30652,-12.250002 -0.35248,0 -2.07334,1.084102 -3.82414,2.409092 -1.7508,1.32499 -4.72331,3.03119 -6.60558,3.79155 l -3.42229,1.38249 5.92229,3.06012 c 7.30698,3.77561 7.09615,3.73118 7.6232,1.60675 z m 60.43399,-20.729442 c 2.36064,-2.46369 5.0393,-5.61987 5.95259,-7.01373 1.63598,-2.49681 1.58875,-2.6117 -3.19415,-7.77056 -2.67007,-2.87995 -5.20148,-5.38647 -5.62536,-5.57006 -0.42388,-0.18358 -2.80616,1.4579 -5.29395,3.64774 -6.73246,5.92615 -10.86391,7.59005 -18.97402,7.64157 -3.85,0.02447 -8.125,-0.18052 -9.5,-0.45552 -2.28571,-0.45714 -2.5,-0.2 -2.5,3 0,3.85658 -0.12877,3.82512 7.89987,1.93043 6.34749,-1.49795 14.96332,0.90975 20.3756,5.69398 2.04849,1.81079 4.36417,3.31107 5.14595,3.33396 0.78178,0.0229 3.35284,-1.97412 5.71347,-4.43781 z m -88.72585,0.08904 c 0.63466,-0.76472 3.49016,-2.39542 6.34554,-3.62377 4.26021,-1.8327 6.31673,-2.12831 11.46299,-1.64774 3.44926,0.32209 7.1147,1.03696 8.14542,1.58858 2.34205,1.25343 3.13701,0.49565 3.13701,-2.99028 l 0,-2.73027 -8.25,0.02686 c -6.31984,0.02057 -9.32803,-0.46769 -12.85779,-2.08695 -4.28183,-1.96428 -10.92531,-8.21754 -13.49576,-12.70306 -1.0228,-1.78481 -1.44359,-1.56062 -5.75,3.0635 -2.55555,2.74408 -4.64645,5.57063 -4.64645,6.28122 0,2.77498 4.13251,9.16989 8.14551,12.60486 4.5928,3.93127 6.00594,4.33482 7.76353,2.21705 z m 111.50917,-11.21659 c 2.39836,-0.92033 1.92661,-2.01678 -1.87989,-4.36933 -1.90393,-1.17669 -5.53848,-5.26339 -8.0768,-9.08156 -4.12113,-6.19907 -4.96011,-6.94212 -7.83832,-6.94212 -7.01562,0 -7.3594,4.22954 -0.90468,11.13016 4.90751,5.24653 8.6813,7.69314 13.78148,8.93477 1.65,0.40169 3.0757,0.77641 3.16821,0.83271 0.0925,0.0563 0.88002,-0.17079 1.75,-0.50463 z m -85.7877,-3.94482 c 2.71568,-0.54341 3.33894,-2.99178 3.35584,-13.18286 l 0.0136,-8.23467 -5.99015,0.6261 -5.99015,0.62609 -4.50985,-4.50984 c -5.60382,-5.60382 -5.86766,-8.49073 -1.13786,-12.45021 4.5514,-3.81012 6.62801,-8.24172 6.62801,-14.14453 0,-4.27999 -0.48851,-5.46322 -3.75,-9.08293 -4.96701,-5.51256 -11.47582,-7.90609 -20.85135,-7.66781 -6.12872,0.15576 -8.25165,0.75263 -15.49999,4.35788 -4.61927,2.29758 -10.93166,5.87328 -14.02755,7.946 -3.09589,2.07273 -9.39589,6.28925 -14,9.37006 -18.2421,12.20657 -27.70262,17.48827 -45.35915,25.32348 l -3.98804,1.76972 2.83386,1.48481 c 5.18406,2.7162 12.92925,2.8463 19.87958,0.33392 11.73806,-4.24302 43.13519,-23.98268 46.07959,-28.97066 2.41121,-4.08471 3.68305,-3.02937 3.68305,3.05611 0,11.65152 10.62218,21.87476 22.75,21.89557 1.7875,0.0031 3.25,0.45558 3.25,1.00558 0,0.55 -0.50925,1 -1.13167,1 -1.81293,0 -0.35502,7.50776 2.1377,11.00847 2.88026,4.04495 9.1057,7.92181 14.32995,8.9239 3.85264,0.73899 5.54411,0.66648 11.29453,-0.48418 z m 109.36949,0.57486 c 0,-0.53732 -1.2375,-1.72908 -2.75,-2.64836 -7.13975,-4.33944 -12.09112,-8.02032 -15.8415,-11.77667 -8.20387,-8.21692 -7.85946,-8.03542 -11.34268,-5.97783 -1.6862,0.99606 -3.06582,2.5455 -3.06582,3.4432 0,2.56964 11.39778,12.7769 17.22227,15.42336 5.38699,2.44768 15.77773,3.45945 15.77773,1.5363 z m -157.9349,-3.07108 c 1.9608,-0.99218 5.69796,-3.71291 8.30478,-6.04607 7.72156,-6.91095 8.01976,-9.17937 1.37066,-10.42675 -3.64735,-0.68425 -3.94794,-0.50554 -10.4977,6.2411 -3.70856,3.82003 -7.98034,7.74747 -9.49284,8.72764 -3.17695,2.05881 -3.4748,3.21215 -1,3.87221 2.54554,0.67893 7.23145,-0.30178 11.3151,-2.36813 z m 90.43356,1.94405 c 5.85771,-1.47499 11.92854,-6.82931 14.05431,-12.39554 1.3842,-3.62447 1.47118,-4.76645 0.45622,-5.98941 -0.68975,-0.83109 -1.08648,-1.52643 -0.88163,-1.54519 0.20484,-0.01877 3.81683,-0.13127 8.02663,-0.25 6.81432,-0.19219 8.13104,-0.5606 12,-3.35747 6.72817,-4.8638 10.32072,-13.27913 8.6911,-20.35841 -0.7865,-3.41669 2.51328,-1.17297 4.0209,2.73405 1.65642,4.29265 9.53145,11.28027 25.91552,22.99521 13.29273,9.50457 29.49003,13.43443 36.46829,8.8481 3.76425,-2.47398 3.44997,-4.05107 -1.07761,-5.40757 -9.73313,-2.91611 -28.40021,-14.30094 -48.97944,-29.87198 -26.49046,-20.04369 -35.71559,-23.79724 -50.92461,-20.72039 -3.19962,0.6473 -9.33463,6.33699 -10.9173,10.12484 -2.90011,6.94095 -1.0175,15.07093 4.90233,21.17052 l 3.73512,3.84853 -2.24425,3.2974 c -4.58118,6.73098 -10.37882,8.8522 -17.99424,6.58366 l -2.75,-0.81919 0,10.07982 0,10.07982 3.25,0.9384 c 4.51914,1.30485 9.10647,1.30962 14.24866,0.0148 z m 83.91955,-1.50301 c 1.69583,-0.65075 2.20925,-3.39301 0.63525,-3.39301 -1.93539,0 -21.82765,-14.02076 -28.93819,-20.39664 -7.61807,-6.83098 -9.47368,-7.71771 -10.50828,-5.02157 -1.54197,4.01829 -0.50509,6.6503 4.64301,11.78579 12.0078,11.97839 27.37118,19.6337 34.16821,17.02543 z M 69.54346,69.464268 c 2.48321,-1.26573 8.00539,-4.90839 12.27149,-8.09482 l 7.75655,-5.79351 -3.21766,-3.31978 c -1.76971,-1.82588 -3.57461,-3.31978 -4.0109,-3.31978 -0.43629,0 -3.1616,2.1375 -6.05626,4.75 -6.71306,6.0587 -14.09701,11.41258 -19.50816,14.14475 -5.08982,2.56994 -5.37814,3.83567 -1,4.39009 4.79281,0.60693 8.70107,-0.17585 13.76494,-2.75695 z m -16.51494,-5.39506 c 5.37685,-2.56798 27.5,-16.59638 27.5,-17.43789 0,-1.49216 -3.35647,-9.69494 -3.96704,-9.69494 -0.42848,0 -6.57368,4.34259 -13.656,9.65021 -11.19361,8.38867 -24.97913,16.34979 -28.31142,16.34979 -2.37244,0 -0.8529,2.00421 2.18446,2.88122 5.75118,1.66059 10.0896,1.19381 16.25,-1.74839 z m 105.61445,-35.10086 c 7.14174,-8.55466 1.78506,-20.03197 -9.34931,-20.03197 -4.3133,0 -5.41151,0.44636 -8.36514,3.4 -2.91325,2.91325 -3.4,4.08071 -3.4,8.15484 0,4.27688 0.41813,5.15259 4.15972,8.71188 3.9485,3.75612 4.4163,3.93239 9.21284,3.4715 4.16114,-0.39983 5.52775,-1.05406 7.74189,-3.70625 z m -9.51988,-0.87895 c -0.34298,-0.55496 0.30854,-1.30488 1.44784,-1.66648 3.06928,-0.97415 5.72094,-7.03457 4.16676,-9.52321 -2.49042,-3.98779 -0.0467,-5.65125 3.13584,-2.13459 2.35697,2.60442 2.07665,7.58783 -0.59501,10.57785 -2.46527,2.75903 -7.16871,4.34297 -8.15543,2.74643 z"
       style="fill:#ff0000;fill-opacity:1"
       id="path16479" />
  </g>
  <path
     style="fill:#ff0000;fill-opacity:1;fill-rule:nonzero;stroke:none"
     d="m 142.73226,293.43308 c -0.54801,-0.84072 -0.89319,-3.60225 -1.15296,-9.224 l -0.37078,-8.02401 -2.36569,-0.97847 c -3.92906,-1.62507 -7.34441,-4.70463 -9.02329,-8.13614 -1.29121,-2.63915 -1.54129,-3.88349 -1.71306,-8.52383 l -0.20114,-5.43355 2.03449,-3.76672 2.03449,-3.76673 -1.15244,-1.47294 c -5.3755,-6.87044 -7.06511,-11.27355 -7.06511,-18.41164 0,-4.42423 0.68724,-6.73439 2.99954,-10.08292 1.573,-2.27794 1.80341,-1.71473 -3.92788,-9.60109 -5.4494,-7.49848 -5.73824,-8.39326 -5.73824,-17.77657 l 0,-7.99989 1.787,-3.29462 c 0.98285,-1.81203 3.05445,-4.83119 4.60354,-6.70923 l 2.81654,-3.41462 -2.86233,-3.69063 c -1.57427,-2.02985 -3.7289,-5.39569 -4.78804,-7.47966 -1.73095,-3.4058 -1.98227,-4.45146 -2.48487,-10.33867 -1.00979,-11.82818 0.54059,-18.26423 5.95715,-24.72986 2.58968,-3.09125 2.75125,-4.56907 0.63611,-5.81851 -2.59167,-1.53094 -7.19687,-6.93742 -9.27047,-10.88347 -3.51988,-6.698353 -4.3845,-12.885242 -2.5358,-18.145141 l 1.05874,-3.012302 -3.35111,-3.24096 c -2.74064,-2.650551 -3.78178,-4.188232 -5.7152,-8.440891 -1.30025,-2.859962 -2.62204,-5.199931 -2.93733,-5.199931 -0.315285,0 -2.084339,0.510302 -3.931232,1.134006 l -3.357982,1.134012 -4.612137,-1.390366 c -2.536676,-0.764699 -6.892106,-1.620869 -9.678736,-1.902593 -3.073688,-0.310754 -6.379037,-1.03396 -8.403219,-1.838627 -1.835141,-0.729516 -5.12528,-1.696292 -7.31142,-2.148398 -2.259513,-0.467274 -5.998044,-1.837933 -8.663223,-3.1762 -3.023317,-1.518097 -5.944899,-2.549674 -8.226274,-2.904602 -1.945819,-0.302724 -4.862469,-1.177051 -6.481444,-1.942948 -2.986223,-1.41271 -8.380461,-5.369045 -8.380461,-6.146543 0,-0.233806 2.099972,-1.072722 4.666605,-1.864259 C 40.818813,43.187698 53.202903,37.165108 60.557602,32.66423 63.197567,31.048643 71.750803,25.508643 79.564793,20.35312 95.525002,9.8228774 98.350485,8.1455439 102.15705,6.941336 c 6.73174,-2.1295848 15.65877,-1.9266947 20.90502,0.4751216 6.4246,2.9412774 10.83321,9.3526144 11.26033,16.3756104 0.28382,4.66686 -0.78605,7.781728 -4.16995,12.140604 -1.46432,1.886215 -2.6624,3.593826 -2.6624,3.794692 0,0.784857 2.24375,3.156954 4.0309,4.261474 1.51519,0.936437 2.33717,1.093432 4.23489,0.808851 1.29512,-0.194216 2.84496,-0.75996 3.44408,-1.257209 2.48524,-2.062657 2.58048,-11.787096 0.17825,-18.19973 -3.27846,-8.751687 -0.14462,-16.2150563 7.77543,-18.5174759 5.95011,-1.7297464 11.44913,0.4766357 14.06934,5.6450779 1.98013,3.905858 1.90094,6.536141 -0.39462,13.107072 -1.67568,4.796569 -1.8555,5.859553 -1.80354,10.661051 0.0317,2.933295 0.21372,6.053253 0.40438,6.933242 0.3449,1.591874 0.36552,1.599979 4.07018,1.599979 4.01294,0 8.79012,-1.44107 8.79012,-2.651601 0,-0.383206 -0.94225,-2.309163 -2.09388,-4.279905 -1.15163,-1.970741 -2.38112,-4.780484 -2.73218,-6.243874 -0.92949,-3.874563 -0.42516,-10.355289 1.04164,-13.385302 1.69938,-3.510442 5.32639,-7.347211 8.66524,-9.1663796 5.38755,-2.9353961 15.606,-2.3396163 23.86585,1.3914816 4.06749,1.837349 11.70439,6.952526 22.98598,15.395952 14.22026,10.642798 23.66849,16.893413 32.40437,21.43758 4.62161,2.404036 5.19516,2.568648 8.94995,2.568648 4.58316,0 5.12103,0.47473 3.68473,3.252214 -1.34522,2.601365 -6.04153,7.037282 -8.77286,8.286428 -1.31998,0.603683 -4.07994,1.369379 -6.13325,1.701556 -2.05331,0.332172 -5.60855,1.32897 -7.90053,2.215097 -3.33994,1.291289 -4.98107,1.6112 -8.26656,1.611413 -2.73135,1.81e-4 -4.98918,0.337814 -6.76594,1.011773 -3.50894,1.331001 -8.60145,2.026475 -20.25724,2.766486 -5.27489,0.334897 -10.11321,0.807558 -10.75181,1.050355 -0.64747,0.246167 -1.93725,1.89766 -2.91566,3.733342 -1.18594,2.225048 -3.078,4.49272 -5.8382,6.997177 l -4.08364,3.705285 -0.35772,5.089069 c -0.60638,8.626345 -2.6642,12.742939 -10.62029,21.245459 l -4.49128,4.79975 3.319,4.2668 c 5.43226,6.98353 6.64954,10.2122 6.65838,17.66049 0.0133,11.20289 -2.76627,17.27099 -11.29982,24.66865 l -3.03904,2.63451 3.43418,3.90242 c 5.20114,5.9103 5.31185,6.24291 5.30289,15.93326 -0.01,10.55189 -0.36975,11.43243 -7.73324,18.91525 -2.92909,2.97656 -5.32562,5.68586 -5.32562,6.02069 0,0.33482 0.59307,1.24869 1.31792,2.03082 2.48847,2.6851 3.70904,6.86271 3.72987,12.76605 0.0226,6.40483 -0.88277,8.73301 -6.06226,15.58939 l -3.31598,4.38953 2.00545,3.58607 c 1.86883,3.34179 2.00359,3.87992 1.97818,7.89963 -0.0606,9.59258 -4.73407,16.14558 -12.22953,17.14793 -1.4429,0.19296 -2.79977,0.61392 -3.01527,0.93548 -0.21551,0.32155 -0.39966,2.02462 -0.40924,3.7846 -0.0253,4.65012 -0.97438,12.96621 -1.61677,14.16653 -0.73593,1.3751 -1.91254,1.30683 -2.87302,-0.16672 l 0,0 z m 2.32007,-21.02276 c 0.0366,-16.74047 -0.10432,-19.1483 -1.08504,-18.54218 -0.54849,0.33898 -0.66062,33.31581 -0.12245,36.00669 0.82045,4.10221 1.17147,-0.97479 1.20749,-17.46451 l 0,0 z m -4.03194,-0.84361 c 0.42154,-1.57299 0.41619,-13.64662 -0.007,-15.22563 -0.46272,-1.72751 -1.86081,-1.28322 -3.02319,0.96071 -1.3321,2.57159 -0.99727,8.80694 0.6801,12.66494 1.33301,3.06593 1.8607,3.42523 2.34984,1.59998 l 3e-5,0 z m 9.77134,-1.28079 c 0.70369,-1.07395 0.92657,-2.55035 0.92657,-6.13749 0,-4.18628 -0.13628,-4.85933 -1.19849,-5.91912 -1.65296,-1.64917 -2.02871,-0.85583 -2.48647,5.24983 -0.56878,7.58649 0.50742,10.24219 2.75839,6.80678 z m 5.09326,-1.38585 c 3.86473,-5.06755 5.35511,-10.27969 4.18352,-14.63061 -0.83546,-3.10268 -4.60839,-7.90397 -8.92584,-11.35871 -5.17383,-4.13998 -10.80388,-9.59809 -11.83841,-11.47685 -0.59429,-1.07926 -0.96781,-3.42083 -1.14768,-7.19483 l -0.26666,-5.59485 -3.90265,-2.00453 c -4.39758,-2.25875 -5.30116,-2.15191 -6.85215,0.8102 -1.19886,2.28962 -1.59764,9.75315 -0.69364,12.98193 1.54003,5.50043 9.32051,12.99725 17.49982,16.86178 6.04259,2.85499 10.02152,7.41475 10.5792,12.12352 0.26996,2.27931 -0.31019,7.12752 -1.23046,10.28294 -0.45876,1.57297 1.16761,1.07158 2.59495,-0.79999 l 0,0 z m -19.69651,-15.02106 c 2.4716,-3.7202 2.43239,-5.14094 -0.16521,-5.98575 -2.57073,-0.83607 -4.36499,0.17183 -5.88106,3.30362 -1.02032,2.1077 -1.13924,2.96688 -0.83249,6.01447 0.49974,4.96476 1.23454,7.48747 2.88803,9.91515 l 1.42556,2.09303 0.26666,-6.1411 c 0.26207,-6.03544 0.30163,-6.19373 2.29851,-9.19942 l 0,0 z m 20.16179,-13.56902 c 4.4509,-2.82268 7.77192,-7.96928 8.41373,-13.03884 1.15629,-9.13322 -2.9802,-15.81262 -14.85792,-23.99185 -7.44881,-5.12939 -12.50228,-9.92069 -13.65952,-12.95088 -1.2436,-3.25631 -0.7896,-7.84234 1.12451,-11.3592 0.80072,-1.47119 1.3126,-3.04822 1.1375,-3.50452 -0.37966,-0.9894 -7.99098,-6.05241 -9.76989,-6.49889 -0.68543,-0.17203 -1.59653,-0.17837 -2.02465,-0.0141 -1.04497,0.401 -3.37246,4.16037 -5.00425,8.08289 -2.3531,5.65641 -1.55092,14.97445 1.87919,21.8283 1.92542,3.84727 9.62253,11.1535 15.157,14.38728 6.12607,3.57945 9.20357,5.96188 11.08448,8.581 2.27766,3.17158 2.47572,4.51759 1.17595,7.99154 -1.72679,4.61528 -1.39101,10.20899 0.69651,11.60287 1.05847,0.70676 2.20947,0.43046 4.64736,-1.11561 l 0,-1e-5 z m -9.36544,-6.21272 c 0.73579,-4.90664 -0.75614,-10.92993 -2.70729,-10.92993 -0.85063,0 -1.07363,2.27345 -0.81083,8.26656 0.1634,3.7263 0.73017,5.0666 2.14252,5.0666 0.79455,0 1.09355,-0.52236 1.3756,-2.40323 z m -5.18945,-7.79548 c -0.0947,-0.99062 -0.41218,-1.74859 -0.70551,-1.68438 -0.6448,0.14116 -1.00574,2.57775 -0.55561,3.75077 0.54383,1.4172 1.4519,-0.0707 1.26112,-2.06639 z m 20.77964,-20.57802 c 7.14365,-4.49207 10.46113,-11.0453 10.49541,-20.73226 0.0185,-5.22301 -0.0416,-5.49666 -2.10541,-9.59987 -1.2455,-2.47619 -3.23136,-5.33824 -4.79994,-6.91772 -2.66112,-2.67963 -10.84456,-8.29701 -22.80955,-15.65721 -3.44716,-2.12051 -6.84504,-4.61886 -7.55084,-5.5519 -1.86531,-2.46586 -3.51552,-8.00673 -3.5097,-11.7844 0.004,-2.61724 0.3115,-3.77959 1.58887,-6.00682 0.87113,-1.5189 1.82886,-2.91304 2.1283,-3.09811 0.9499,-0.58707 0.58839,-2.71384 -0.65554,-3.8566 -0.66,-0.60631 -2.93088,-1.96657 -5.04641,-3.0228 l -3.84643,-1.92042 -2.92597,3.62142 c -1.60928,1.99177 -3.41232,4.75603 -4.00675,6.14278 -1.3648,3.18394 -2.35951,10.92531 -1.89679,14.76189 1.12833,9.35548 7.1893,17.60542 18.05761,24.57928 14.05275,9.01722 18.95341,12.76065 20.43093,15.60644 1.96274,3.78033 0.64201,10.1903 -3.01334,14.62488 -0.89085,1.08075 -1.61973,2.39059 -1.61973,2.91074 0,1.16817 3.6387,4.76857 5.99127,5.9282 2.23623,1.10229 3.30649,1.09651 5.09401,-0.0275 l 0,0 z m -14.20466,-10.29495 c 0.43877,-3.69933 0.43201,-10.96891 -0.0121,-13.04089 -0.20803,-0.97051 -1.03698,-2.05051 -2.14908,-2.79996 -3.37464,-2.27417 -3.42421,-2.1653 -3.14792,6.91319 0.24864,8.16988 0.65267,10.01001 2.51568,11.45719 1.63253,1.26815 2.4285,0.54738 2.79343,-2.52953 l -1e-5,0 z m 4.91653,-2.79441 c 0.50829,-1.89666 0.38827,-6.26658 -0.17211,-6.26658 -0.64205,0 -1.61815,3.45003 -1.62207,5.73326 -0.004,2.02274 1.29185,2.40778 1.79418,0.53332 z m -11.92764,-4.14459 c 0.51675,-2.15403 0.50655,-2.84167 -0.0521,-3.51478 -1.41142,-1.70066 -2.61792,1.74586 -1.74779,4.99274 0.50984,1.90246 1.10644,1.41256 1.79987,-1.47796 l -3e-5,0 z m 24.5539,-29.33678 c 3.20127,-2.05424 7.52865,-6.61646 8.98659,-9.47426 2.54796,-4.99443 3.61653,-14.54456 2.2113,-19.76318 -0.63728,-2.36665 -3.94699,-7.0919 -7.56274,-10.79728 -3.34963,-3.43265 -11.83685,-7.826 -23.54499,-12.1879 -10.43511,-3.88763 -13.08243,-5.08427 -16.91328,-7.645075 -3.49002,-2.332983 -5.8171,-4.638899 -7.00211,-6.938415 -1.10159,-2.137652 -1.92187,-8.19017 -1.32189,-9.753701 0.31832,-0.82952 0.50781,-0.781547 1.80651,0.457349 3.54187,3.378744 9.31877,3.38268 13.8617,0.0094 3.99947,-2.9697 4.28136,-5.844467 0.71308,-7.272209 -8.93807,-3.57631 -19.97285,0.644675 -23.91849,9.149213 -1.1255,2.425941 -1.28476,3.425256 -1.10491,6.933242 0.26594,5.18702 2.16941,9.247526 6.29959,13.438356 3.84713,3.90363 7.71111,6.3562 20.26639,12.86365 14.05268,7.28355 18.46378,9.94559 20.60463,12.43464 4.55532,5.29621 3.3861,12.58702 -3.1937,19.91488 -1.65611,1.8444 -3.01111,3.48015 -3.01111,3.63501 0,2.14868 6.00024,6.5307 9.01985,6.58726 0.70764,0.0133 2.41925,-0.70271 3.80358,-1.59102 l 0,0 z m -16.58181,-6.62121 c 0.78999,-0.95186 1.95205,-17.36349 1.42616,-20.14124 -0.58135,-3.07061 -5.80921,-6.17931 -7.32343,-4.35479 -0.79068,0.95272 -0.28694,19.32359 0.5996,21.86674 0.33908,0.97265 1.25489,1.96905 2.27823,2.47866 2.16027,1.07581 2.24799,1.08018 3.01944,0.15063 l 0,0 z m 7.12199,-4.98301 c 1.25786,-1.38991 2.50297,-4.63225 2.50297,-6.51784 0,-1.82473 -1.58303,-5.27518 -2.93496,-6.39719 -1.46059,-1.21219 -1.8479,0.24357 -1.85681,6.97907 -0.009,7.13816 0.35216,8.07593 2.2888,5.93596 l 0,0 z m -15.53102,-4.12532 c 0.20118,-2.01215 0.20118,-5.47266 0,-7.69003 -0.31861,-3.51185 -0.49942,-4.03159 -1.40252,-4.03159 -1.64266,0 -3.19362,3.20937 -3.21312,6.64884 -0.0189,3.34018 2.38083,9.35079 3.57527,8.95485 0.40469,-0.13415 0.82096,-1.68745 1.04037,-3.88207 l 0,0 z m 29.14641,-31.32136 c 8.58769,-4.24189 16.57031,-18.797074 14.50847,-26.454157 -0.78629,-2.920062 -5.21581,-7.671488 -8.77523,-9.412947 -5.17084,-2.52986 -13.15815,-2.358161 -16.98256,0.365061 -1.82402,1.298821 -1.68844,2.796353 0.5154,5.692363 1.80834,2.37631 4.24298,3.312212 8.94551,3.438754 3.63889,0.09792 4.04698,-0.0099 6.38075,-1.685145 1.37128,-0.984361 2.64652,-1.636464 2.83387,-1.449112 0.47533,0.475332 -0.69242,5.758297 -1.77893,8.047937 -2.1872,4.609192 -8.78,10.312046 -15.41875,13.337416 -4.34117,1.97834 -4.83022,2.44944 -4.05208,3.90339 0.67202,1.25569 8.39609,5.37738 10.11929,5.39982 0.70119,0.009 2.36811,-0.52339 3.70426,-1.18338 l 0,0 z m -18.34877,-6.74093 c 0.6415,-1.03797 3.61778,-59.894263 3.40115,-67.258093 l -0.16474,-5.599926 -5.49607,-0.45941 c -3.02284,-0.252675 -5.63127,-0.324211 -5.79651,-0.158969 -0.48171,0.481712 -1.3079,57.59206 -0.93261,64.46695 0.22935,4.201438 0.57431,6.442848 1.05268,6.839858 0.93772,0.77824 5.59401,2.58726 6.74109,2.61899 0.49601,0.0137 1.03377,-0.18851 1.19501,-0.4494 l 0,0 z m 9.90422,-3.83595 c 3.82963,-2.041171 9.06531,-6.640172 9.06531,-7.962928 0,-0.543427 -0.45782,-1.133361 -1.01738,-1.310958 -0.55956,-0.177598 -1.14223,-0.648237 -1.29481,-1.045869 -0.15259,-0.397627 -1.55474,-1.312154 -3.1159,-2.032272 -1.56115,-0.720124 -4.06588,-2.285463 -5.56604,-3.478536 l -2.72759,-2.169219 -0.27635,4.429542 c -0.15199,2.436245 -0.16173,5.029091 -0.0216,5.761881 l 0.25469,1.332334 3.01591,-0.721094 c 4.31515,-1.031741 4.42643,-0.943609 1.14925,0.910249 -3.84756,2.176516 -5.33326,3.582353 -5.33326,5.04659 0,3.35668 1.35836,3.6438 5.86782,1.24028 l 0,0 z m -20.80096,-0.98414 c 0,-1.449943 -3.25752,-3.989862 -8.41291,-6.55963 -3.40716,-1.698341 -4.55736,-2.055312 -5.04646,-1.566204 -0.48911,0.489103 0.0412,1.270175 2.32675,3.426931 4.83737,4.564783 11.13262,7.221913 11.13262,4.698903 z m -0.33615,-6.038747 c 0.36598,-1.365662 0.4576,-10.533194 0.10526,-10.533194 -0.12698,0 -2.22165,1.209141 -4.65482,2.686978 -2.43316,1.477836 -4.96923,2.82384 -5.6357,2.991112 -0.66647,0.167273 -1.21177,0.472586 -1.21177,0.678477 0,0.484244 9.43207,5.376612 10.36565,5.376612 0.39039,0 0.85451,-0.539993 1.03138,-1.199985 l 0,0 z m 47.35036,-15.043999 c 2.21883,-1.507729 8.45173,-9.033219 8.45173,-10.204457 0,-0.432026 -1.87372,-2.730956 -4.16383,-5.108738 -4.77885,-4.961812 -4.28716,-4.939956 -9.85892,-0.438181 -5.75958,4.653528 -6.99433,5.04892 -16.11019,5.158871 l -7.9999,0.09649 -0.1639,2.781382 -0.1639,2.781377 2.83053,-0.459999 c 1.55679,-0.253 4.99051,-0.452138 7.63047,-0.442528 5.58017,0.02032 8.10277,0.93042 13.20061,4.76254 1.74434,1.311247 3.45204,2.384086 3.79488,2.384086 0.34284,0 1.49142,-0.58988 2.55242,-1.310847 l 0,0 z m -69.14323,-3.202363 c 4.87231,-2.933956 7.74324,-3.683354 12.56904,-3.280895 2.27905,0.190067 5.08615,0.678076 6.23799,1.084471 1.15183,0.406389 2.36864,0.56931 2.70401,0.362038 0.33538,-0.207272 0.7595,-1.46925 0.9425,-2.804395 l 0.33273,-2.427542 -7.50905,-0.270044 c -6.89827,-0.248082 -7.75148,-0.392704 -10.48946,-1.777993 -2.70383,-1.368014 -6.57612,-4.883002 -10.80984,-9.812418 l -1.58056,-1.840273 -3.04358,3.173587 c -4.06836,4.242136 -4.78754,5.660811 -4.03129,7.952279 1.38024,4.182153 8.17572,11.487764 10.68562,11.487764 0.50894,0 2.30529,-0.83096 3.99189,-1.846579 l 0,0 z m 91.30882,-9.010516 c 0.80514,-0.757942 0.46701,-1.251375 -2.37143,-3.460653 -1.24156,-0.966355 -3.96652,-4.03096 -6.05546,-6.810224 -4.55507,-6.060369 -5.61013,-6.862649 -8.35125,-6.350404 -1.10127,0.205802 -2.30232,0.622092 -2.66898,0.925089 -1.17646,0.972181 -0.76202,3.864484 0.87026,6.073536 5.61776,7.602795 15.36119,12.649806 18.57686,9.622656 l 0,0 z m 18.55238,-2.476063 c 0,-0.439994 -2.54964,-2.530457 -5.66585,-4.645475 -3.11622,-2.115017 -7.97034,-6.014967 -10.78694,-8.666553 -2.81659,-2.651587 -5.37881,-4.821066 -5.69382,-4.821066 -1.67926,0 -5.3197,2.964763 -5.3197,4.33235 0,0.849071 4.79851,5.976103 7.92645,8.469124 3.98558,3.176571 6.50412,4.537012 10.34034,5.585531 3.68634,1.00756 9.19952,0.855397 9.19952,-0.253911 z M 138.751,64.529265 c 1.52768,-0.624211 2.01494,-2.750967 2.39652,-10.460168 l 0.37418,-7.55964 -5.31202,0.380202 -5.31201,0.380202 -3.07914,-3.325832 c -3.47537,-3.753824 -4.37777,-5.539951 -3.61694,-7.159111 0.27957,-0.594973 1.81505,-2.579084 3.41217,-4.409136 3.23503,-3.706835 4.24957,-6.293732 4.24957,-10.835685 0,-3.804671 -0.88888,-5.515585 -4.65265,-8.955464 -4.22482,-3.8612474 -8.30251,-5.0704651 -16.1883,-4.8005524 l -5.75941,0.1971319 -6.619561,3.2576645 C 94.864024,13.098816 86.531995,18.141515 79.224022,22.991851 62.026101,34.406194 56.094078,37.910527 44.484864,43.513952 c -5.411908,2.612167 -9.704867,4.967774 -9.53991,5.23468 0.164957,0.266907 1.624346,0.980815 3.243087,1.586463 3.627647,1.357277 9.495352,1.461727 13.602181,0.24213 8.197991,-2.434542 32.668158,-17.293267 38.799112,-23.559518 1.557654,-1.592025 2.987187,-2.739499 3.176742,-2.549943 0.189555,0.189556 0.515182,2.130016 0.723617,4.312133 0.223768,2.342643 0.906292,5.119296 1.666559,6.779938 2.430939,5.309869 8.732978,10.162629 14.115198,10.869123 5.80816,0.762404 5.6769,0.711794 4.68584,1.806913 -0.77848,0.860211 -0.82257,1.375854 -0.31855,3.72602 1.22075,5.692137 4.54793,9.312376 11.10744,12.08578 2.6682,1.128134 3.6797,1.269978 7.61046,1.067245 2.4933,-0.128596 4.92076,-0.392139 5.39436,-0.585651 l 0,0 z M 97.940794,62.393314 c 4.827986,-2.38199 11.949486,-9.009221 11.949486,-11.120128 0,-1.662296 -1.14665,-2.388714 -4.49507,-2.847665 l -2.40478,-0.329612 -5.483289,5.278731 c -3.015805,2.903302 -6.683272,6.29431 -8.149919,7.535574 -2.599182,2.199752 -2.639651,2.278226 -1.599979,3.102385 1.584001,1.255653 5.674891,0.60516 10.183551,-1.619285 l 0,0 z m 77.131156,0.917332 c 5.68464,-2.558729 11.48044,-10.563986 10.16722,-14.043119 l -0.5378,-1.424783 6.30806,-0.506666 c 5.91218,-0.474869 6.47588,-0.621181 8.98199,-2.331342 5.30805,-3.622189 8.16395,-8.883983 8.17666,-15.064905 0.009,-4.17161 0.0428,-4.16104 3.58753,1.108457 3.93344,5.847312 19.5471,18.157906 28.53296,22.496824 10.63294,5.13423 20.23054,5.789293 23.98808,1.637256 1.50232,-1.660032 0.68987,-2.506841 -4.31113,-4.493493 C 251.30624,47.248969 238.65446,39.31881 221.59546,26.638466 206.28999,15.261556 198.30089,10.551519 192.13934,9.2723877 188.07541,8.4287185 179.97592,8.845989 177.76326,10.013016 c -2.49813,1.317592 -5.39086,3.989783 -7.0016,6.467824 -1.24883,1.921251 -1.40156,2.678228 -1.40341,6.955804 -0.003,5.701068 1.02746,8.281113 5.07257,12.707104 l 2.56084,2.801972 -1.82358,2.512855 c -4.27962,5.897228 -8.64544,7.191974 -16.35851,4.851345 -0.88383,-0.268211 -0.93698,0.289999 -0.79999,8.402906 l 0.14673,8.690203 2.13331,0.67157 c 3.33885,1.051074 11.71122,0.618391 14.78233,-0.763953 z m 67.84515,-0.979278 c 0.92781,-0.927806 1.12537,-2.361873 0.32538,-2.361873 -0.95149,0 -14.64579,-9.475867 -20.02036,-13.853226 -2.93329,-2.389047 -6.4948,-5.289342 -7.91445,-6.4451 -2.94493,-2.397504 -4.88427,-2.718569 -5.46021,-0.903958 -1.08356,3.413986 0.0229,5.898347 4.68436,10.517728 5.88044,5.827383 13.42991,10.868143 19.35683,12.9245 3.42519,1.188379 7.90155,1.248832 9.02845,0.121929 l 0,0 z M 83.262961,59.858526 c 3.341828,-1.659045 7.018116,-4.097446 15.689836,-10.406725 0.717249,-0.521851 1.311633,-1.19784 1.320853,-1.502196 0.009,-0.304356 -1.174578,-1.7268 -2.63066,-3.160987 -3.219755,-3.17134 -2.913609,-3.265204 -10.685736,3.276226 -5.372424,4.521713 -9.248572,7.29148 -14.589086,10.424874 -2.558362,1.501046 -3.171713,2.800645 -1.544035,3.271583 0.513327,0.148521 2.630845,0.223597 4.705596,0.166835 3.153855,-0.08628 4.421628,-0.425568 7.733232,-2.06961 l 0,0 z M 67.072211,56.452945 C 70.42879,55.335042 76.435043,51.89671 85.717958,45.779024 l 7.560588,-4.982627 -0.553731,-2.013298 c -0.473402,-1.721229 -2.304882,-5.841 -2.883178,-6.485483 -0.260818,-0.290668 -2.119807,0.95959 -10.617615,7.140838 -11.136716,8.100773 -19.933482,13.383025 -23.866352,14.331185 -1.635569,0.394314 -1.842653,0.957257 -0.700755,1.904948 2.07285,1.720312 8.39662,2.116772 12.415296,0.778358 z M 155.48996,28.013014 c 1.6887,-1.055411 3.90679,-4.480458 4.61402,-7.12471 1.37873,-5.154909 -2.02965,-10.336889 -7.62213,-11.5884309 -4.03038,-0.9019603 -6.45118,-0.3612621 -9.10536,2.0337329 -2.47859,2.23655 -3.61993,4.539174 -3.61993,7.303101 0,2.888704 1.16646,5.071813 4.23899,7.933568 l 2.79182,2.600305 3.81783,-0.245377 c 2.09981,-0.134958 4.29795,-0.545443 4.88476,-0.912189 z"
     id="path3660" />
</svg>
