<?xml version="1.0" encoding="UTF-8" standalone="no"?>
<!-- Created with Inkscape (http://www.inkscape.org/) -->

<svg
   xmlns:dc="http://purl.org/dc/elements/1.1/"
   xmlns:cc="http://creativecommons.org/ns#"
   xmlns:rdf="http://www.w3.org/1999/02/22-rdf-syntax-ns#"
   xmlns:svg="http://www.w3.org/2000/svg"
   xmlns="http://www.w3.org/2000/svg"
   xmlns:sodipodi="http://sodipodi.sourceforge.net/DTD/sodipodi-0.dtd"
   xmlns:inkscape="http://www.inkscape.org/namespaces/inkscape"
   width="256"
   height="256"
   id="svg2"
   version="1.1"
   inkscape:version="0.47 r22583"
   sodipodi:docname="crosshaire.svg">
  <defs
     id="defs4">
    <inkscape:perspective
       sodipodi:type="inkscape:persp3d"
       inkscape:vp_x="0 : 526.18109 : 1"
       inkscape:vp_y="0 : 1000 : 0"
       inkscape:vp_z="744.09448 : 526.18109 : 1"
       inkscape:persp3d-origin="372.04724 : 350.78739 : 1"
       id="perspective10" />
    <inkscape:perspective
       id="perspective2905"
       inkscape:persp3d-origin="0.5 : 0.33333333 : 1"
       inkscape:vp_z="1 : 0.5 : 1"
       inkscape:vp_y="0 : 1000 : 0"
       inkscape:vp_x="0 : 0.5 : 1"
       sodipodi:type="inkscape:persp3d" />
    <inkscape:perspective
       id="perspective5048"
       inkscape:persp3d-origin="0.5 : 0.33333333 : 1"
       inkscape:vp_z="1 : 0.5 : 1"
       inkscape:vp_y="0 : 1000 : 0"
       inkscape:vp_x="0 : 0.5 : 1"
       sodipodi:type="inkscape:persp3d" />
  </defs>
  <sodipodi:namedview
     id="base"
     pagecolor="#000000"
     bordercolor="#666666"
     borderopacity="1.0"
     inkscape:pageopacity="1"
     inkscape:pageshadow="2"
     inkscape:zoom="2"
     inkscape:cx="19.58811"
     inkscape:cy="154.26131"
     inkscape:document-units="px"
     inkscape:current-layer="layer1"
     showgrid="false"
     inkscape:window-width="1920"
     inkscape:window-height="1020"
     inkscape:window-x="-4"
     inkscape:window-y="-4"
     inkscape:window-maximized="1" />
  <metadata
     id="metadata7">
    <rdf:RDF>
      <cc:Work
         rdf:about="">
        <dc:format>image/svg+xml</dc:format>
        <dc:type
           rdf:resource="http://purl.org/dc/dcmitype/StillImage" />
        <dc:title></dc:title>
      </cc:Work>
    </rdf:RDF>
  </metadata>
  <g
     inkscape:label="Ebene 1"
     inkscape:groupmode="layer"
     id="layer1"
     transform="translate(0,-796.36218)">
    <path
       style="fill:#ffffff;fill-opacity:0.50196078;stroke:none"
       d="M 75.375 12.40625 C 31.508602 32.413828 1 76.638808 1 128 C 1 179.3612 31.508602 223.58617 75.375 243.59375 L 95 200.875 C 67.290364 188.30305 48 160.40968 48 128 C 48 95.590318 67.290364 67.696949 95 55.125 L 75.375 12.40625 z M 180.625 12.40625 L 161 55.125 C 188.70964 67.696949 208 95.590318 208 128 C 208 160.40968 188.70964 188.30305 161 200.875 L 180.625 243.59375 C 224.4914 223.58617 255 179.3612 255 128 C 255 76.638808 224.4914 32.413828 180.625 12.40625 z "
       transform="translate(0,796.36218)"
       id="path2911" />
    <path
       sodipodi:type="arc"
       style="fill:#ffffff;fill-opacity:1;stroke:#ffffff;stroke-width:4.59100008;stroke-miterlimit:4;stroke-opacity:1;stroke-dasharray:none;stroke-dashoffset:0"
       id="path3685"
       sodipodi:cx="131.87541"
       sodipodi:cy="102.91138"
       sodipodi:rx="17.67767"
       sodipodi:ry="13.435029"
       d="m 149.55308,102.91138 c 0,7.41996 -7.91456,13.43503 -17.67767,13.43503 -9.76311,0 -17.67767,-6.01507 -17.67767,-13.43503 0,-7.419965 7.91456,-13.435032 17.67767,-13.435032 9.76311,0 17.67767,6.015067 17.67767,13.435032 z"
       transform="matrix(0.49234918,0,0,0.64782785,63.071249,857.69332)" />
  </g>
</svg>
